<svg width="23" height="18" viewBox="0 0 23 18" fill="none" xmlns="http://www.w3.org/2000/svg">
<path d="M20.3564 0.939411C20.4991 0.800133 20.6695 0.689488 20.8574 0.613953C21.0454 0.538418 21.2472 0.499512 21.4511 0.499512C21.6549 0.499512 21.8568 0.538418 22.0447 0.613953C22.2327 0.689488 22.403 0.800133 22.5457 0.939411C23.1437 1.51745 23.1521 2.45152 22.5666 3.03956L10.2028 17.0205C10.0624 17.168 9.89206 17.2865 9.70216 17.3688C9.51227 17.4511 9.30681 17.4955 9.09836 17.4993C8.88991 17.503 8.68285 17.466 8.48986 17.3906C8.29686 17.3152 8.12198 17.2028 7.97592 17.0605L0.452674 9.76803C0.162528 9.48498 0 9.10437 0 8.70796C0 8.31154 0.162528 7.93093 0.452674 7.64788C0.595373 7.5086 0.765687 7.39796 0.953642 7.32242C1.1416 7.24689 1.34342 7.20798 1.54729 7.20798C1.75116 7.20798 1.95298 7.24689 2.14093 7.32242C2.32889 7.39796 2.4992 7.5086 2.6419 7.64788L9.02349 13.8343L20.3146 0.983414L20.3564 0.939411Z" fill="#808080"/>
</svg>
