<svg width="18" height="16" viewBox="0 0 18 16" fill="none" xmlns="http://www.w3.org/2000/svg">
<path d="M0.292893 0.292893C0.683417 -0.0976311 1.31643 -0.0976311 1.70696 0.292893L8.70696 7.29289C9.09748 7.68342 9.09748 8.31643 8.70696 8.70696L1.70696 15.707C1.31643 16.0975 0.683417 16.0975 0.292893 15.707C-0.0976311 15.3164 -0.0976311 14.6834 0.292893 14.2929L6.58586 7.99992L0.292893 1.70696C-0.0976311 1.31643 -0.0976311 0.683417 0.292893 0.292893Z" fill="#C5E600"/>
<path d="M9.29289 0.292893C9.68342 -0.0976311 10.3164 -0.0976311 10.707 0.292893L17.707 7.29289C18.0975 7.68342 18.0975 8.31643 17.707 8.70696L10.707 15.707C10.3164 16.0975 9.68342 16.0975 9.29289 15.707C8.90237 15.3164 8.90237 14.6834 9.29289 14.2929L15.5859 7.99992L9.29289 1.70696C8.90237 1.31643 8.90237 0.683417 9.29289 0.292893Z" fill="#C5E600"/>
</svg>
