<svg width="32" height="32" viewBox="0 0 32 32" fill="none" xmlns="http://www.w3.org/2000/svg">
<path d="M16 0C24.8365 0 32 7.16347 32 16C32 24.8365 24.8365 32 16 32C7.16347 32 0 24.8365 0 16C2.57705e-07 7.16347 7.16347 2.57721e-07 16 0ZM16 7.53418C10.3863 7.53418 5.81836 11.1469 5.81836 15.5869C5.81861 19.5672 9.44033 22.9009 14.333 23.5312C14.6644 23.6009 15.1162 23.7443 15.2305 24.0205C15.3331 24.2714 15.2978 24.6647 15.2637 24.918C15.2606 24.9362 15.1439 25.6188 15.1182 25.7666C15.0738 26.0175 14.9137 26.748 16 26.3018C17.0872 25.8552 21.8628 22.9368 23.999 20.541C25.4745 18.9641 26.1815 17.3637 26.1816 15.5869C26.1816 11.147 21.6144 7.53426 16 7.53418Z" fill="#F3F4EF"/>
<path d="M10.5137 13.4316C10.6137 13.4316 10.6953 13.516 10.6953 13.6201V16.9717H12.4688C12.5686 16.9719 12.6494 17.0562 12.6494 17.1602V17.8398C12.6492 17.9436 12.5684 18.0281 12.4688 18.0283H9.86035C9.81173 18.0282 9.76793 18.0078 9.73535 17.9756C9.73443 17.9746 9.73312 17.9736 9.73242 17.9727C9.73149 17.9718 9.73108 17.9706 9.73047 17.9697C9.69926 17.9363 9.67973 17.8903 9.67969 17.8398V13.6201C9.67972 13.516 9.76132 13.4316 9.86133 13.4316H10.5137ZM22.1387 13.4316C22.2385 13.4316 22.3191 13.5162 22.3193 13.6201V14.2998C22.3193 14.4041 22.2387 14.4883 22.1387 14.4883H20.3652V15.2012H22.1387C22.2387 15.2012 22.3193 15.2863 22.3193 15.3906V16.0693C22.3193 16.1734 22.2387 16.2578 22.1387 16.2578H20.3652V16.9717H22.1387C22.2387 16.9717 22.3193 17.0563 22.3193 17.1602V17.8398C22.3192 17.9438 22.2386 18.0283 22.1387 18.0283H19.5312C19.4826 18.0283 19.4386 18.008 19.4062 17.9756L19.4004 17.9697C19.385 17.9528 19.3729 17.9329 19.3643 17.9111L19.3506 17.8398V13.6201C19.3506 13.5697 19.3694 13.5239 19.4004 13.4902L19.4053 13.4854C19.4216 13.4689 19.4408 13.4554 19.4619 13.4463L19.5312 13.4316H22.1387ZM14.042 13.4316C14.142 13.4316 14.2236 13.5163 14.2236 13.6201V17.8398C14.2236 17.9437 14.142 18.0273 14.042 18.0273H13.3896C13.2897 18.0273 13.2081 17.9437 13.208 17.8398V13.6201C13.208 13.5163 13.2896 13.4316 13.3896 13.4316H14.042ZM15.7168 13.4336C15.7191 13.4338 15.722 13.4341 15.7246 13.4346C15.7279 13.4353 15.7311 13.4368 15.7344 13.4375C15.7365 13.4382 15.7391 13.439 15.7412 13.4395C15.7448 13.4406 15.7485 13.4412 15.752 13.4424C15.754 13.4431 15.7557 13.4436 15.7578 13.4443C15.7615 13.4458 15.7651 13.4478 15.7686 13.4492L15.7832 13.458C15.7851 13.4592 15.7874 13.4597 15.7891 13.4609C15.7923 13.4631 15.7956 13.4656 15.7988 13.4678C15.8001 13.4689 15.8012 13.4704 15.8027 13.4717C15.806 13.4741 15.8095 13.4776 15.8125 13.4805C15.8139 13.4817 15.8153 13.4824 15.8164 13.4834C15.8199 13.4872 15.8237 13.491 15.8271 13.4951L15.8281 13.4961C15.833 13.5021 15.8376 13.5088 15.8418 13.5156L17.7002 16.127V13.6201C17.7002 13.5163 17.7816 13.4316 17.8818 13.4316H18.5342C18.6342 13.4316 18.7158 13.5163 18.7158 13.6201V17.8398C18.7158 17.9437 18.6342 18.0273 18.5342 18.0273H17.8818C17.8655 18.0273 17.8497 18.0256 17.835 18.0215H17.832C17.8282 18.0201 17.8246 18.0182 17.8203 18.0166C17.8184 18.0161 17.8163 18.0154 17.8145 18.0146C17.8115 18.0135 17.8086 18.0117 17.8057 18.0107C17.8029 18.0093 17.7996 18.0075 17.7969 18.0059C17.7954 18.005 17.7937 18.004 17.792 18.0029C17.7884 18.001 17.7849 17.9987 17.7812 17.9961L17.7793 17.9951C17.762 17.9827 17.7462 17.9669 17.7334 17.9482L15.873 15.333V17.8398C15.873 17.9436 15.7916 18.0273 15.6914 18.0273H15.0391C14.9391 18.0273 14.8575 17.9437 14.8574 17.8398V13.6201C14.8574 13.5163 14.939 13.4316 15.0391 13.4316H15.6973L15.7168 13.4336Z" fill="#F3F4EF"/>
</svg>
