<svg width="32" height="32" viewBox="0 0 32 32" fill="none" xmlns="http://www.w3.org/2000/svg">
<path d="M14.1208 3.35067C15.3256 2.86228 16.6731 2.86228 17.8779 3.35067L27.876 7.40397C28.7565 7.76094 29.3327 8.61621 29.3327 9.56635V22.4367C29.3327 23.3868 28.7565 24.242 27.876 24.5991L17.8779 28.6523C16.6731 29.1407 15.3256 29.1407 14.1208 28.6523L4.12271 24.5991C3.24216 24.242 2.66602 23.3868 2.66602 22.4367V9.56635C2.66602 8.61621 3.24216 7.76094 4.12271 7.40397L14.1208 3.35067ZM17.1264 5.20415C16.4036 4.91112 15.5951 4.91112 14.8723 5.20415L12.3206 6.23858L22.3564 10.1414L25.9153 8.76722L17.1264 5.20415ZM19.5875 11.2105L9.61898 7.33385L6.11974 8.75246L16.0011 12.5952L19.5875 11.2105ZM4.66602 22.4367C4.66602 22.5724 4.74832 22.6945 4.87411 22.7456L14.8723 26.7988C14.9144 26.816 14.9571 26.8321 14.9998 26.8472V14.3517L4.66602 10.333V22.4367ZM17.1264 26.7988L27.1245 22.7456C27.2504 22.6945 27.3327 22.5724 27.3327 22.4367V10.3639L16.9998 14.3535V26.8469C17.0423 26.8319 17.0845 26.8159 17.1264 26.7988Z" fill="#E1FF00"/>
</svg>
