<svg width="36" height="37" viewBox="0 0 36 37" fill="none" xmlns="http://www.w3.org/2000/svg">
<path d="M9.28592 33.2821C8.54171 33.8176 7.50391 33.2856 7.50391 32.3688V9.875C7.50391 7.18261 9.68651 5 12.3789 5H23.6265C26.3188 5 28.5015 7.18261 28.5015 9.875V32.3688C28.5015 33.2856 27.4636 33.8176 26.7195 33.2821L18.0027 27.0107L9.28592 33.2821ZM26.2515 9.875C26.2515 8.42525 25.0762 7.25 23.6265 7.25H12.3789C10.9292 7.25 9.75391 8.42525 9.75391 9.875V30.1736L17.3457 24.7115C17.7382 24.4292 18.2673 24.4292 18.6597 24.7115L26.2515 30.1736V9.875Z" fill="white" stroke="white" stroke-width="0.5"/>
</svg>
