<svg width="24" height="24" viewBox="0 0 24 24" fill="none" xmlns="http://www.w3.org/2000/svg">
<path d="M17.6571 6.34315C18.0814 6.76741 18.0814 7.3331 17.6571 7.75736L13.4144 12L17.6571 16.2426C18.0814 16.6669 18.0814 17.2326 17.6571 17.6569C17.2328 18.0811 16.6671 18.0811 16.2429 17.6569L12.0002 13.4142L7.75759 17.6569C7.33333 18.0811 6.76764 18.0811 6.34338 17.6569C5.91911 17.2326 5.91911 16.6669 6.34338 16.2426L10.586 12L6.34338 7.75736C5.91911 7.3331 5.91911 6.76741 6.34338 6.34315C6.76764 5.91888 7.33333 5.91888 7.75759 6.34315L12.0002 10.5858L16.2429 6.34315C16.6671 5.91888 17.2328 5.91888 17.6571 6.34315Z" fill="white"/>
</svg>
