<svg width="32" height="32" viewBox="0 0 32 32" fill="none" xmlns="http://www.w3.org/2000/svg">
<path d="M19.3728 4.78777C18.9823 4.39725 18.3491 4.39725 17.9585 4.78777L4.78703 17.9593C4.39651 18.3498 4.39651 18.983 4.78703 19.3736L6.21132 20.7978C6.74095 20.5017 7.35156 20.3332 7.9988 20.3332C10.0238 20.3332 11.6655 21.9748 11.6655 23.9998C11.6655 24.6472 11.4969 25.2577 11.2008 25.7873L12.6253 27.2118C13.0158 27.6024 13.6489 27.6024 14.0395 27.2118L27.2111 14.0402C27.6016 13.6497 27.6016 13.0165 27.2111 12.626L25.7867 11.2016C25.257 11.4979 24.6461 11.6665 23.9988 11.6665C21.9737 11.6665 20.3321 10.0249 20.3321 7.99986C20.3321 7.35246 20.5008 6.74169 20.7971 6.21197L19.3728 4.78777ZM16.5444 3.37355C17.716 2.20198 19.6155 2.20198 20.7871 3.37355L22.3489 4.93553C23.03 5.61653 22.908 6.5725 22.5646 7.15005C22.4171 7.3981 22.3321 7.68753 22.3321 7.99986C22.3321 8.92034 23.0783 9.66653 23.9988 9.66653C24.3111 9.66653 24.6005 9.58157 24.8485 9.43407C25.4261 9.09069 26.3822 8.96865 27.0631 9.64966L28.6252 11.2118C29.7968 12.3834 29.7968 14.2829 28.6252 15.4545L15.4537 28.626C14.2821 29.7976 12.3826 29.7976 11.2111 28.626L9.64884 27.0638C8.96792 26.3829 9.08983 25.427 9.43312 24.8496C9.58054 24.6014 9.66547 24.3121 9.66547 23.9998C9.66547 23.0794 8.91927 22.3332 7.9988 22.3332C7.68655 22.3332 7.39718 22.4181 7.14918 22.5656C6.57163 22.9089 5.61579 23.0308 4.93487 22.3498L3.37282 20.7878C2.20124 19.6162 2.20126 17.7168 3.37282 16.5452L16.5444 3.37355Z" fill="#E1FF00"/>
</svg>
