<svg width="24" height="24" viewBox="0 0 24 24" fill="none" xmlns="http://www.w3.org/2000/svg">
<path d="M8.25 13.25C8.7 13.25 9 13.55 9 14C9 14.45 8.7 14.75 8.25 14.75H6.75V19.25C6.75 19.7 6.45 20 6 20C5.55 20 5.25 19.7 5.25 19.25V14.75H3.75C3.3 14.75 3 14.45 3 14C3 13.55 3.3 13.25 3.75 13.25H8.25ZM12 11.75C12.45 11.75 12.75 12.05 12.75 12.5V19.25C12.75 19.7 12.45 20 12 20C11.55 20 11.25 19.7 11.25 19.25V12.5C11.25 12.05 11.55 11.75 12 11.75ZM20.25 14.75C20.7 14.75 21 15.05 21 15.5C21 15.95 20.7 16.25 20.25 16.25H18.75V19.25C18.75 19.7 18.45 20 18 20C17.55 20 17.25 19.7 17.25 19.25V16.25H15.75C15.3 16.25 15 15.95 15 15.5C15 15.05 15.3 14.75 15.75 14.75H20.25ZM18 5C18.45 5 18.75 5.3 18.75 5.75V12.5C18.75 12.95 18.45 13.25 18 13.25C17.55 13.25 17.25 12.95 17.25 12.5V5.75C17.25 5.3 17.55 5 18 5ZM6 5C6.45 5 6.75 5.3 6.75 5.75V11C6.75 11.45 6.45 11.75 6 11.75C5.55 11.75 5.25 11.45 5.25 11V5.75C5.25 5.3 5.55 5 6 5ZM12 5C12.45 5 12.75 5.3 12.75 5.75V8.75H14.25C14.7 8.75 15 9.05 15 9.5C15 9.95 14.7 10.25 14.25 10.25H9.75C9.3 10.25 9 9.95 9 9.5C9 9.05 9.3 8.75 9.75 8.75H11.25V5.75C11.25 5.3 11.55 5 12 5Z" fill="white" stroke="white" stroke-width="0.5"/>
</svg>
