<svg width="32" height="32" viewBox="0 0 32 32" fill="none" xmlns="http://www.w3.org/2000/svg">
<path d="M19.1409 3.46062C19.2593 3.31031 19.4797 3.29032 19.6233 3.41688L20.8513 4.4998L16.9844 9.3335H19.5456L22.3531 5.82412L24.556 7.76668C24.6915 7.88616 24.7072 8.0918 24.5913 8.23043L23.6697 9.3335H26.262C26.9207 8.37207 26.7704 7.0528 25.8788 6.26662L20.9461 1.91682C19.9415 1.0309 18.3988 1.17077 17.57 2.22295L11.9683 9.3335H14.5144L19.1409 3.46062ZM21.6667 18.6668C21.1144 18.6668 20.6667 19.1146 20.6667 19.6668C20.6667 20.2191 21.1144 20.6668 21.6667 20.6668H24.3333C24.8856 20.6668 25.3333 20.2191 25.3333 19.6668C25.3333 19.1146 24.8856 18.6668 24.3333 18.6668H21.6667ZM6 9.66683C6 9.11455 6.44772 8.66683 7 8.66683H11.1713L12.76 6.66683H7C5.34315 6.66683 4 8.00998 4 9.66683V23.6668C4 26.06 5.94009 28.0002 8.33333 28.0002H24.3333C26.7265 28.0002 28.6667 26.06 28.6667 23.6668V15.0002C28.6667 12.6069 26.7265 10.6668 24.3333 10.6668H7C6.44772 10.6668 6 10.2191 6 9.66683ZM6 23.6668V12.4961C6.31277 12.6067 6.64936 12.6668 7 12.6668H24.3333C25.622 12.6668 26.6667 13.7115 26.6667 15.0002V23.6668C26.6667 24.9555 25.622 26.0002 24.3333 26.0002H8.33333C7.04467 26.0002 6 24.9555 6 23.6668Z" fill="#E1FF00"/>
</svg>
