<svg width="32" height="32" viewBox="0 0 32 32" fill="none" xmlns="http://www.w3.org/2000/svg">
<g clip-path="url(#clip0_440_5297)">
<path d="M19.0625 16C19.0625 17.6914 17.6914 19.0625 16 19.0625C14.3086 19.0625 12.9375 17.6914 12.9375 16C12.9375 14.3086 14.3086 12.9375 16 12.9375C17.6914 12.9375 19.0625 14.3086 19.0625 16Z" fill="#F3F4EF"/>
<path d="M23.1611 10.5813C23.0139 10.1824 22.7791 9.82129 22.4739 9.5249C22.1775 9.21973 21.8167 8.98486 21.4175 8.83765C21.0938 8.71191 20.6074 8.56226 19.7117 8.52148C18.7427 8.47729 18.4521 8.46777 15.999 8.46777C13.5457 8.46777 13.2551 8.47705 12.2864 8.52124C11.3906 8.56226 10.9041 8.71191 10.5806 8.83765C10.1814 8.98486 9.82031 9.21973 9.52417 9.5249C9.21899 9.82129 8.98413 10.1821 8.83667 10.5813C8.71094 10.905 8.56128 11.3916 8.52051 12.2874C8.47632 13.2561 8.4668 13.5466 8.4668 16C8.4668 18.4531 8.47632 18.7437 8.52051 19.7126C8.56128 20.6084 8.71094 21.0947 8.83667 21.4185C8.98413 21.8176 9.21875 22.1785 9.52393 22.4749C9.82031 22.78 10.1812 23.0149 10.5803 23.1621C10.9041 23.2881 11.3906 23.4377 12.2864 23.4785C13.2551 23.5227 13.5454 23.532 15.9988 23.532C18.4524 23.532 18.7429 23.5227 19.7114 23.4785C20.6072 23.4377 21.0938 23.2881 21.4175 23.1621C22.2188 22.853 22.8521 22.2197 23.1611 21.4185C23.2869 21.0947 23.4365 20.6084 23.4775 19.7126C23.5217 18.7437 23.531 18.4531 23.531 16C23.531 13.5466 23.5217 13.2561 23.4775 12.2874C23.4368 11.3916 23.2871 10.905 23.1611 10.5813ZM15.999 20.7175C13.3933 20.7175 11.281 18.6055 11.281 15.9998C11.281 13.394 13.3933 11.282 15.999 11.282C18.6045 11.282 20.7168 13.394 20.7168 15.9998C20.7168 18.6055 18.6045 20.7175 15.999 20.7175ZM20.9033 12.198C20.2944 12.198 19.8008 11.7043 19.8008 11.0955C19.8008 10.4866 20.2944 9.99292 20.9033 9.99292C21.5122 9.99292 22.0059 10.4866 22.0059 11.0955C22.0056 11.7043 21.5122 12.198 20.9033 12.198Z" fill="#F3F4EF"/>
<path d="M16 0C7.16479 0 0 7.16479 0 16C0 24.8352 7.16479 32 16 32C24.8352 32 32 24.8352 32 16C32 7.16479 24.8352 0 16 0ZM25.1321 19.7878C25.0876 20.7659 24.9321 21.4336 24.7051 22.0181C24.2278 23.2522 23.2522 24.2278 22.0181 24.7051C21.4338 24.9321 20.7659 25.0874 19.7881 25.1321C18.8083 25.1768 18.4954 25.1875 16.0002 25.1875C13.5049 25.1875 13.1921 25.1768 12.2122 25.1321C11.2344 25.0874 10.5664 24.9321 9.98218 24.7051C9.3689 24.4744 8.81372 24.1128 8.35474 23.6453C7.88745 23.1865 7.52588 22.6311 7.29517 22.0181C7.06812 21.4338 6.9126 20.7659 6.86816 19.7881C6.823 18.8081 6.8125 18.4951 6.8125 16C6.8125 13.5049 6.823 13.1919 6.86792 12.2122C6.91235 11.2341 7.06763 10.5664 7.29468 9.98193C7.52539 9.3689 7.88721 8.81348 8.35474 8.35474C8.81348 7.88721 9.3689 7.52563 9.98193 7.29492C10.5664 7.06787 11.2341 6.9126 12.2122 6.86792C13.1919 6.82324 13.5049 6.8125 16 6.8125C18.4951 6.8125 18.8081 6.82324 19.7878 6.86816C20.7659 6.9126 21.4336 7.06787 22.0181 7.29468C22.6311 7.52539 23.1865 7.88721 23.6455 8.35474C24.1128 8.81372 24.4746 9.3689 24.7051 9.98193C24.9324 10.5664 25.0876 11.2341 25.1323 12.2122C25.177 13.1919 25.1875 13.5049 25.1875 16C25.1875 18.4951 25.177 18.8081 25.1321 19.7878Z" fill="#F3F4EF"/>
</g>
<defs>
<clipPath id="clip0_440_5297">
<rect width="32" height="32" fill="white"/>
</clipPath>
</defs>
</svg>
