<svg width="40" height="40" viewBox="0 0 40 40" fill="none" xmlns="http://www.w3.org/2000/svg">
<path d="M17.75 9.5H22.25C22.4489 9.5 22.6397 9.57902 22.7803 9.71967C22.921 9.86032 23 10.0511 23 10.25V11.75H17V10.25C17 10.0511 17.079 9.86032 17.2197 9.71967C17.3603 9.57902 17.5511 9.5 17.75 9.5ZM24.5 11.75V10.25C24.5 9.65326 24.2629 9.08097 23.841 8.65901C23.419 8.23705 22.8467 8 22.25 8H17.75C17.1533 8 16.581 8.23705 16.159 8.65901C15.7371 9.08097 15.5 9.65326 15.5 10.25V11.75H10.25C10.0511 11.75 9.86032 11.829 9.71967 11.9697C9.57902 12.1103 9.5 12.3011 9.5 12.5C9.5 12.6989 9.57902 12.8897 9.71967 13.0303C9.86032 13.171 10.0511 13.25 10.25 13.25H11.057L12.3365 29.24C12.3968 29.9918 12.7381 30.6933 13.2924 31.2048C13.8467 31.7162 14.5733 32.0002 15.3275 32H24.6725C25.4267 32.0002 26.1533 31.7162 26.7076 31.2048C27.2619 30.6933 27.6032 29.9918 27.6635 29.24L28.943 13.25H29.75C29.9489 13.25 30.1397 13.171 30.2803 13.0303C30.421 12.8897 30.5 12.6989 30.5 12.5C30.5 12.3011 30.421 12.1103 30.2803 11.9697C30.1397 11.829 29.9489 11.75 29.75 11.75H24.5ZM27.437 13.25L26.168 29.12C26.1378 29.4959 25.9672 29.8466 25.69 30.1024C25.4129 30.3581 25.0496 30.5001 24.6725 30.5H15.3275C14.9504 30.5001 14.5871 30.3581 14.31 30.1024C14.0328 29.8466 13.8622 29.4959 13.832 29.12L12.563 13.25H27.437ZM16.2065 14.75C16.405 14.7385 16.5999 14.8063 16.7484 14.9385C16.897 15.0707 16.9869 15.2565 16.9985 15.455L17.7485 28.205C17.7564 28.4012 17.687 28.5926 17.5553 28.7382C17.4236 28.8838 17.2401 28.972 17.0441 28.9838C16.8481 28.9955 16.6554 28.93 16.5072 28.8012C16.359 28.6725 16.2672 28.4907 16.2515 28.295L15.5 15.545C15.4939 15.4465 15.5073 15.3477 15.5395 15.2544C15.5717 15.161 15.6219 15.075 15.6874 15.0011C15.7529 14.9273 15.8324 14.8671 15.9212 14.824C16.01 14.7809 16.1064 14.7557 16.205 14.75H16.2065ZM23.7935 14.75C23.8921 14.7557 23.9885 14.7809 24.0773 14.824C24.1661 14.8671 24.2456 14.9273 24.3111 15.0011C24.3766 15.075 24.4268 15.161 24.459 15.2544C24.4912 15.3477 24.5046 15.4465 24.4985 15.545L23.7485 28.295C23.7445 28.3947 23.7207 28.4925 23.6784 28.5829C23.6361 28.6732 23.5762 28.7542 23.5022 28.8211C23.4282 28.888 23.3417 28.9395 23.2475 28.9726C23.1534 29.0056 23.0537 29.0195 22.9541 29.0135C22.8545 29.0076 22.7572 28.9818 22.6677 28.9377C22.5782 28.8936 22.4984 28.8321 22.433 28.7568C22.3676 28.6815 22.3178 28.594 22.2866 28.4992C22.2555 28.4044 22.2435 28.3044 22.2515 28.205L23.0015 15.455C23.0131 15.2565 23.103 15.0707 23.2516 14.9385C23.4001 14.8063 23.595 14.7385 23.7935 14.75ZM20 14.75C20.1989 14.75 20.3897 14.829 20.5303 14.9697C20.671 15.1103 20.75 15.3011 20.75 15.5V28.25C20.75 28.4489 20.671 28.6397 20.5303 28.7803C20.3897 28.921 20.1989 29 20 29C19.8011 29 19.6103 28.921 19.4697 28.7803C19.329 28.6397 19.25 28.4489 19.25 28.25V15.5C19.25 15.3011 19.329 15.1103 19.4697 14.9697C19.6103 14.829 19.8011 14.75 20 14.75Z" fill="white"/>
</svg>
